<svg xmlns="http://www.w3.org/2000/svg" viewBox="0 0 100 100" width="100" height="100">
  <!-- Scrum Master - Personne avec bouclier protecteur -->
  <defs>
    <linearGradient id="gradSM" x1="0%" y1="0%" x2="100%" y2="100%">
      <stop offset="0%" style="stop-color:#10b981;stop-opacity:1" />
      <stop offset="100%" style="stop-color:#059669;stop-opacity:1" />
    </linearGradient>
  </defs>
  
  <!-- Tête -->
  <circle cx="50" cy="30" r="12" fill="url(#gradSM)"/>
  
  <!-- Corps -->
  <path d="M 38 42 Q 50 40 62 42 L 62 70 Q 50 75 38 70 Z" fill="url(#gradSM)" opacity="0.9"/>
  
  <!-- Bouclier protecteur -->
  <path d="M 20 40 Q 20 30 30 25 Q 40 22 50 25 Q 60 22 70 25 Q 80 30 80 40 Q 80 60 50 75 Q 20 60 20 40 Z" 
        fill="none" stroke="#10b981" stroke-width="3" opacity="0.6"/>
  <path d="M 30 35 Q 30 30 35 27 Q 42 25 50 27 Q 58 25 65 27 Q 70 30 70 35 Q 70 50 50 60 Q 30 50 30 35 Z" 
        fill="#d1fae5" opacity="0.4"/>
  
  <!-- Checkmark sur le bouclier -->
  <path d="M 42 45 L 48 52 L 62 38" stroke="#10b981" stroke-width="3" stroke-linecap="round" fill="none"/>
  
  <!-- Bras -->
  <path d="M 38 50 L 25 55" stroke="url(#gradSM)" stroke-width="4" stroke-linecap="round"/>
  <path d="M 62 50 L 75 55" stroke="url(#gradSM)" stroke-width="4" stroke-linecap="round"/>
  
  <!-- Jambes -->
  <path d="M 45 70 L 42 90" stroke="url(#gradSM)" stroke-width="5" stroke-linecap="round"/>
  <path d="M 55 70 L 58 90" stroke="url(#gradSM)" stroke-width="5" stroke-linecap="round"/>
</svg>
